# xmcd
#
# Track frame offsets:
#       182
#       14895
#       37187
#       73540
#       95170
#       126685
#       146382
#       167822
#       188170
#       213040
#       230625
#       250757
#
# Disc length: 3577 seconds
#
# Revision: 1
# Processed by: cddbd v1.4PL0 Copyright (c) Steve Scherf et al.
# Submitted via: MusiCat 1.1
#
DISCID=b70df70c
DTITLE=John Primer - Blues behind Closed Doors
DYEAR=1900
DGENRE=
TTITLE0=1839
TTITLE1=Somebody have mercy
TTITLE2=Good Morning Heartache
TTITLE3=Don't you hear me cryin' for you
TTITLE4=Blues behind closed doors
TTITLE5=I'm just a fool 
TTITLE6=Smokestack
TTITLE7=Next time you see me
TTITLE8=Country Boy
TTITLE9=Yes, I'm crazy about my baby
TTITLE10=It ain't easy been easy
TTITLE11=Tore Down
EXTD=0\n\n\nsubmitted by Stamppot
EXTT0=
EXTT1=
EXTT2=
EXTT3=
EXTT4=
EXTT5=
EXTT6=
EXTT7=
EXTT8=
EXTT9=
EXTT10=
EXTT11=
PLAYORDER=
